<?xml version="1.0" encoding="utf-8"?>
<!-- Generator: Adobe Illustrator 26.3.1, SVG Export Plug-In . SVG Version: 6.00 Build 0)  -->
<svg version="1.1" id="icon" xmlns="http://www.w3.org/2000/svg" xmlns:xlink="http://www.w3.org/1999/xlink" x="0px" y="0px"
	 viewBox="0 0 24 24" style="enable-background:new 0 0 24 24;" xml:space="preserve">
<path id="dice" d="M12,0c-0.4,0-0.7,0.1-1,0.2L2.2,5.3C1.9,5.5,1.8,5.7,1.8,5.9c0,0.2,0.2,0.4,0.4,0.6l8.8,5.1
	c0.3,0.1,0.6,0.2,1,0.2c0.4,0,0.7-0.1,1-0.2l8.8-5.1c0.3-0.1,0.4-0.4,0.4-0.6c0-0.2-0.2-0.4-0.4-0.6L13,0.2C12.7,0.1,12.3,0,12,0
	L12,0z M12,0.7c0.5,0,1,0.1,1.3,0.3c0.7,0.4,0.7,1.1,0,1.5c-0.7,0.4-1.9,0.4-2.6,0C10,2.2,10,1.5,10.7,1C11,0.8,11.5,0.7,12,0.7
	C11.9,0.7,12,0.7,12,0.7L12,0.7z M1.6,7.5c-0.1,0-0.2,0-0.2,0.1C1.1,7.6,1,7.9,1,8.2v9.1c0,0.3,0.1,0.7,0.3,1
	C1.5,18.5,1.8,18.8,2,19l8.5,4.9c0.3,0.1,0.5,0.2,0.7,0.1c0.2-0.1,0.3-0.3,0.3-0.6v-9.1c0-0.3-0.1-0.7-0.3-1
	c-0.2-0.3-0.4-0.6-0.7-0.7L2,7.6C1.9,7.5,1.7,7.4,1.6,7.5L1.6,7.5z M22.4,7.5c-0.1,0-0.3,0-0.5,0.1l-8.5,4.9
	c-0.3,0.1-0.5,0.4-0.7,0.7l0,0c-0.2,0.3-0.3,0.7-0.3,1v9.1c0,0.3,0.1,0.5,0.3,0.6c0.2,0.1,0.4,0.1,0.7-0.1L22,19
	c0.3-0.1,0.5-0.4,0.7-0.7c0.2-0.3,0.3-0.7,0.3-1V8.2c0-0.3-0.1-0.5-0.3-0.6C22.6,7.5,22.5,7.5,22.4,7.5L22.4,7.5z M21.6,8.7
	c0.4,0,0.6,0.4,0.6,0.9c0,0.8-0.6,1.8-1.3,2.2c-0.7,0.4-1.3,0.1-1.3-0.7c0-0.8,0.6-1.8,1.3-2.2C21.2,8.8,21.4,8.7,21.6,8.7L21.6,8.7
	z M12,8.8c0.5,0,1,0.1,1.3,0.3c0.7,0.4,0.7,1.1,0,1.5c-0.7,0.4-1.9,0.4-2.6,0c-0.7-0.4-0.7-1.1,0-1.5C11,9,11.5,8.9,12,8.8
	C11.9,8.8,12,8.8,12,8.8L12,8.8z M5.6,14.1c0.6,0,1.4,0.6,1.8,1.5c0.1,0.3,0.2,0.6,0.2,0.8c0,0.8-0.6,1.1-1.3,0.7
	C5.5,16.8,5,15.8,5,15C5,14.5,5.2,14.1,5.6,14.1L5.6,14.1z M18.4,14.1C18.4,14.1,18.4,14.1,18.4,14.1c0.4,0,0.6,0.4,0.6,0.9
	c0,0.8-0.6,1.8-1.3,2.2c-0.7,0.4-1.3,0.1-1.3-0.7c0-0.8,0.6-1.8,1.3-2.2C18,14.1,18.2,14.1,18.4,14.1z M15.2,19.5
	c0.4,0,0.6,0.4,0.6,0.9c0,0.8-0.6,1.8-1.3,2.2c-0.7,0.4-1.3,0.1-1.3-0.7c0-0.8,0.6-1.8,1.3-2.2C14.7,19.6,15,19.5,15.2,19.5z"/>
</svg>
