<?xml version="1.0" encoding="utf-8"?>
<!-- Generator: Adobe Illustrator 25.2.3, SVG Export Plug-In . SVG Version: 6.00 Build 0)  -->
<svg version="1.1" id="Warstwa_1" xmlns="http://www.w3.org/2000/svg" xmlns:xlink="http://www.w3.org/1999/xlink" x="0px" y="0px"
	 viewBox="0 0 512 512" style="enable-background:new 0 0 512 512;" xml:space="preserve">
<style type="text/css">
	.st0{fill:#448AFF;}
	.st1{fill:#FFFFFF;}
</style>
<rect class="st0" width="513" height="513"/>
<g id="hoop">
	<g id="right">
		<polygon id="element" class="st1" points="294.5,363.4 330.7,345.2 393.8,356.7 344.6,387 		"/>
		<polygon id="element_00000000184533658094825850000000678690792801508239_" class="st1" points="341.9,337.4 366.4,308.1 
			422.1,293.9 393,337.4 		"/>
		<polyline id="element_00000058556504166424757570000015122185760604382398_" class="st1" points="384.6,261.1 424.1,229.1 
			418.7,276 373,297.4 		"/>
		<polygon id="element_00000048466854697099151580000002468958871274517153_" class="st1" points="388,244.5 382.8,213 403,170.4 
			414.8,211.7 		"/>
		<polygon id="element_00000069358096626684999340000018289760679684845471_" class="st1" points="380.5,196.3 389.7,159.3 
			362.3,128.4 363.1,173.3 		"/>
		<polygon id="element_00000142892297917863377280000009887312266742187439_" class="st1" points="355.4,155.4 350.6,120.4 
			315.6,103 333,142.7 		"/>
	</g>
	<polygon id="bottom_00000134936047575514125810000013325668486285561487_" class="st1" points="279.8,364.5 255.8,364.5 
		231.8,364.5 175,406.7 238.7,409.5 255.8,387.3 272.9,409.5 336.6,406.7 	"/>
	<g id="left">
		<polygon id="element_00000084516897231239983530000014584015993509872806_" class="st1" points="217,363.4 180.9,345.2 
			117.8,356.7 167,387 		"/>
		<polygon id="element_00000106142451910462401340000002500877583193660094_" class="st1" points="169.6,337.4 145.1,308.1 
			89.4,293.9 118.5,337.4 		"/>
		<polyline id="element_00000152253182357513608480000000200935321545389470_" class="st1" points="127,261.1 87.4,229.1 92.8,276 
			138.5,297.4 		"/>
		<polygon id="element_00000098910329432685357830000012367546066515594885_" class="st1" points="123.6,244.5 128.7,213 
			108.5,170.4 96.8,211.7 		"/>
		<polygon id="element_00000143585315561005422030000012327317594023863945_" class="st1" points="131.1,196.3 121.9,159.3 
			149.2,128.4 148.5,173.3 		"/>
		<polygon id="element_00000007419875946411059200000006777821373315827354_" class="st1" points="156.2,155.4 161,120.4 196,103 
			178.6,142.7 		"/>
	</g>
</g>
<g id="crown">
	<path id="bottom_00000067227067219635450990000010452234695121090183_" class="st1" d="M257.2,261.9H255c-50.5-0.2-71,12.1-78,18.5
		l4.8,7.8c6.1,10.4,35.6,15.9,73.7,16h0.6c38.1,0,67.5-5.6,73.7-16l4.8-7.8C327.5,274,307.3,261.7,257.2,261.9L257.2,261.9z
		 M255.8,299.8L255.8,299.8c-39.8,0-72.2-6.8-71-14.6c1-6.6,29.6-17.4,70.9-17.1c41.4-0.3,70,10.5,70.9,17.1
		C327.9,293,295.5,299.8,255.8,299.8z"/>
	<path id="middle" class="st1" d="M342.6,266.2c-2.9-3-21.4-19.3-86.1-19.3c-0.3,0-0.5,0-0.8,0c-0.2,0-0.5,0-0.8,0
		c-64.7,0-83.2,16.3-86.1,19.3c-0.3,0.3-0.4,0.5-0.4,0.5l7,11.2c7.4-7,28.1-20.2,80.3-20.2s73,13.2,80.3,20.2l7-11.2
		C343,266.6,342.9,266.4,342.6,266.2L342.6,266.2z M181.2,270l-5.3-3l1.2-4.4l4.7,2L181.2,270z M214.4,258.8l-2.9-1l-0.8-4.4
		l2.5-1.8l2.9,1l0.8,4.4L214.4,258.8L214.4,258.8z M255.2,255.9l-3.3-4.3l3.3-3.3l3.3,3.3L255.2,255.9z M298.7,257.8l-2.9,1
		l-2.5-1.8l0.8-4.4l2.9-1l2.5,1.8L298.7,257.8L298.7,257.8z M329,270l-0.8-5.3l4.8-2l1.2,4.4L329,270L329,270z"/>
	<path id="upper" class="st1" d="M335.2,235.4c0.5,0.9,1.6,6.8-1.2,10c-2.6,3.1-9,3.3-13.1,2.3c-5.5-1.4-9.5-6-11-10.4
		c-1.3-3.9-1.2-8.5-0.7-11c0.1,0,0.1,0,0.3,0c4,0,7.2-3.2,7.2-7.2c0-4-3.2-7.2-7.2-7.2s-7.2,3.2-7.2,7.2c0,2.3,1.1,4.4,2.8,5.7
		c-0.8,2.1-4.2,6-8.7,8.3c-1.4,0.8-6.1,3-12.5,2.8c-2.9-0.1-6.4-0.3-10-2.7c-1.8-1.2-5.2-3.4-5.8-7.5c-0.7-4.6,2.7-8,3.1-8.5
		c-5.7-6.1-11.3-12.1-16.9-18.2c-5.7,6.1-11.3,12.1-16.9,18.2c0.5,0.5,4.2,3.5,3.1,8.4c-1.7,7.8-8.3,9.6-12.3,10.2
		c-6.9,1-12.3-1.1-13.7-1.8c-4.4-2.3-9.5-7.5-10.2-9.6c1.7-1.3,2.8-3.3,2.8-5.7c0-4-3.2-7.2-7.2-7.2c-4,0-7.2,3.2-7.2,7.2
		s3.2,7.2,7.2,7.2c0.1,0,0.1,0,0.3,0c0.5,2.5,0.8,6.4-0.3,10.4c-0.5,1.8-1,4.4-3,6.7c-3.2,3.4-5.9,4.3-9.5,4.9
		c-2.3,0.4-8.7,1.2-10.8-4c-1.4-3.4-0.6-7.6-0.2-8.5l-25.8-2.2l4.4,22.1c1.4,0.1,3.5,0.8,6.3,2.5c0.4,0.3,0.9,0.6,1.4,1.2
		c0.4,0.4,0.8,0.8,1.2,1.3l0,0c1.7,2,3.2,4.3,3.2,4.3c3.8-4.6,17.5-15,55-19.1c9.7-1,20.9-1.7,33.7-1.7c1.3,0,2.7,0,3.9,0
		c0.3,0,0.5,0,0.7,0c1.3,0,2.5,0,3.8,0.1c56.9,1.3,75.8,15.2,80.3,20.7c0,0,3.6-5.5,5.8-6.7c2.9-1.6,5-2.3,6.3-2.5l4.4-22.1
		L335.2,235.4L335.2,235.4z"/>
</g>
<g id="cross">
	<polygon id="bottom" class="st1" points="228.1,271.8 215.6,315.2 217.9,317.9 250,317.9 263.7,270.1 	"/>
	<path id="upper_00000001643940642370307510000000016030741713516712_" class="st1" d="M308.5,187.5h-21.1l5.4-18.8l-3.3-4h-30.6
		l-6.5,22.7h-24.5l-7.6,26.4l3.3,4h10.6c7.2-7.8,14.5-15.6,21.7-23.4l0.2,0.2c6.9,7.4,13.8,14.9,20.7,22.4c-0.6,0.6-6.8,5.3-3,10.9
		c0.5,0.7,1,1.2,1.6,1.6l3.3-11.7h25.7l7.5-26.3L308.5,187.5L308.5,187.5z"/>
</g>
</svg>
