<?xml version="1.0" encoding="utf-8"?>
<!-- Generator: Adobe Illustrator 26.3.1, SVG Export Plug-In . SVG Version: 6.00 Build 0)  -->
<svg version="1.1" id="icon" xmlns="http://www.w3.org/2000/svg" xmlns:xlink="http://www.w3.org/1999/xlink" x="0px" y="0px"
	 viewBox="0 0 24 24" style="enable-background:new 0 0 24 24;" xml:space="preserve">
<style type="text/css">
	.st0{fill:none;stroke:#000000;stroke-width:2;stroke-linecap:round;stroke-linejoin:round;}
</style>
<g id="link">
	<path id="bottom" class="st0" d="M14,11c-1.65-2.21-4.79-2.66-7-1.01c-0.19,0.14-0.37,0.3-0.54,0.47l-3,3
		c-1.92,1.99-1.86,5.15,0.12,7.07c1.94,1.87,5.01,1.87,6.95,0l1.71-1.71"/>
	<path id="top" class="st0" d="M10,13c1.65,2.21,4.79,2.66,7,1.01c0.19-0.14,0.37-0.3,0.54-0.47l3-3c1.92-1.99,1.86-5.15-0.12-7.07
		c-1.94-1.87-5.01-1.87-6.95,0l-1.72,1.71"/>
</g>
</svg>
