<?xml version="1.0" encoding="utf-8"?>
<!-- Generator: Adobe Illustrator 26.3.1, SVG Export Plug-In . SVG Version: 6.00 Build 0)  -->
<svg version="1.1" id="icon" xmlns="http://www.w3.org/2000/svg" xmlns:xlink="http://www.w3.org/1999/xlink" x="0px" y="0px"
	 viewBox="0 0 24 24" style="enable-background:new 0 0 24 24;" xml:space="preserve">
<style type="text/css">
	.st0{fill:none;stroke:#000000;stroke-width:2;stroke-linecap:round;stroke-linejoin:round;}
</style>
<g id="settings">
	<circle id="indise" class="st0" cx="12" cy="12" r="3"/>
	<path id="outside" class="st0" d="M19.4,15c-0.27,0.62-0.14,1.34,0.33,1.82l0.06,0.06c0.78,0.78,0.78,2.05,0,2.83c0,0,0,0,0,0
		c-0.78,0.78-2.05,0.78-2.83,0c0,0,0,0,0,0l-0.06-0.06c-0.48-0.47-1.2-0.6-1.82-0.33c-0.6,0.26-1,0.85-1,1.51V21c0,1.1-0.9,2-2,2
		s-2-0.9-2-2v-0.09C10.06,20.23,9.64,19.63,9,19.4c-0.62-0.27-1.34-0.14-1.82,0.33l-0.06,0.06c-0.78,0.78-2.05,0.78-2.83,0
		c0,0,0,0,0,0c-0.78-0.78-0.78-2.05,0-2.83c0,0,0,0,0,0l0.06-0.06c0.47-0.48,0.6-1.2,0.33-1.82c-0.26-0.6-0.85-1-1.51-1H3
		c-1.1,0-2-0.9-2-2s0.9-2,2-2h0.09C3.77,10.06,4.37,9.64,4.6,9c0.27-0.62,0.14-1.34-0.33-1.82L4.21,7.12
		c-0.78-0.78-0.78-2.05,0-2.83c0,0,0,0,0,0c0.78-0.78,2.05-0.78,2.83,0c0,0,0,0,0,0L7.1,4.35c0.48,0.47,1.2,0.6,1.82,0.33H9
		c0.6-0.26,1-0.85,1-1.51V3c0-1.1,0.9-2,2-2s2,0.9,2,2v0.09c0,0.66,0.4,1.25,1,1.51c0.62,0.27,1.34,0.14,1.82-0.33l0.06-0.06
		c0.78-0.78,2.05-0.78,2.83,0c0,0,0,0,0,0c0.78,0.78,0.78,2.05,0,2.83c0,0,0,0,0,0L19.65,7.1c-0.47,0.48-0.6,1.2-0.33,1.82V9
		c0.26,0.6,0.85,1,1.51,1H21c1.1,0,2,0.9,2,2s-0.9,2-2,2h-0.09C20.25,14,19.66,14.4,19.4,15z"/>
</g>
</svg>
