<?xml version="1.0" encoding="UTF-8"?><svg id="LOGO" xmlns="http://www.w3.org/2000/svg" viewBox="0 0 1000 1000"><defs><style>.cls-1{fill:#fff;}.cls-2{fill:#2170d0;}</style></defs><rect id="background" class="cls-2" width="1000" height="1000"/><g id="BPSW"><g id="hoop"><g id="right"><polygon id="element" class="cls-1" points="582.23 727.44 658.96 688.64 792.88 713.11 688.49 777.38 582.23 727.44"/><polygon id="element-2" class="cls-1" points="682.85 672.13 734.82 610.03 853.1 579.91 791.28 672.13 682.85 672.13"/><polyline id="element-3" class="cls-1" points="773.33 510.13 857.3 442.38 845.86 541.84 748.86 587.3"/><polygon id="element-4" class="cls-1" points="780.57 475.1 769.71 408.21 812.56 317.73 837.47 405.46 780.57 475.1"/><polygon id="element-5" class="cls-1" points="764.64 372.74 784.19 294.13 726.14 228.55 727.73 323.81 764.64 372.74"/><polygon id="element-6" class="cls-1" points="711.37 285.88 701.23 211.61 626.97 174.7 663.88 258.95 711.37 285.88"/></g><polygon id="bottom" class="cls-1" points="550.96 729.61 500 729.61 449.04 729.61 328.44 819.22 463.66 825.3 500 778.11 536.34 825.3 671.56 819.22 550.96 729.61"/><g id="left"><polygon id="element-7" class="cls-1" points="417.77 727.44 341.04 688.64 207.12 713.11 311.51 777.38 417.77 727.44"/><polygon id="element-8" class="cls-1" points="317.15 672.13 265.18 610.03 146.9 579.91 208.72 672.13 317.15 672.13"/><polyline id="element-9" class="cls-1" points="226.67 510.13 142.7 442.38 154.14 541.84 251.14 587.3"/><polygon id="element-10" class="cls-1" points="219.43 475.1 230.29 408.21 187.44 317.73 162.53 405.46 219.43 475.1"/><polygon id="element-11" class="cls-1" points="235.36 372.74 215.81 294.13 273.86 228.55 272.27 323.81 235.36 372.74"/><polygon id="element-12" class="cls-1" points="288.63 285.88 298.77 211.61 373.03 174.7 336.12 258.95 288.63 285.88"/></g></g><g id="crown"><path id="bottom-2" class="cls-1" d="M503.04,511.87h-4.63c-107.28-.43-150.71,25.77-165.62,39.23l10.28,16.5c12.88,22.01,75.57,33.73,156.35,33.88h1.3c80.78,0,143.33-11.87,156.35-33.88l10.28-16.5c-15.06-13.46-58.05-39.52-164.32-39.23h0Zm-2.9,80.49h-.14c-84.26,0-153.02-14.33-150.56-30.98,2.17-14.04,62.83-36.92,150.56-36.34,87.88-.58,148.54,22.29,150.56,36.34,2.61,16.65-66.16,30.98-150.42,30.98Z"/><path id="middle" class="cls-1" d="M684.3,520.99c-6.08-6.37-45.46-40.97-182.85-40.97h-3.19c-137.24,0-176.62,34.6-182.85,40.97-.58,.72-.87,1.01-.87,1.01l14.77,23.74c15.64-14.91,59.65-42.85,170.54-42.85s154.91,27.94,170.54,42.85l14.77-23.74s-.14-.43-.87-1.01h0Zm-342.53,8.11l-11.15-6.37,2.61-9.27,9.99,4.34-1.45,11.29Zm70.5-23.74l-6.23-2.17-1.59-9.27,5.21-3.76,6.23,2.17,1.59,9.27-5.21,3.76h0Zm86.43-6.23l-7.09-9.12,7.09-7.09,7.09,7.09-7.09,9.12Zm92.51,4.05l-6.23,2.17-5.21-3.76,1.59-9.27,6.23-2.17,5.21,3.76-1.59,9.27h0Zm64.28,25.91l-1.59-11.29,10.13-4.34,2.61,9.27-11.15,6.37h0Z"/><path id="upper" class="cls-1" d="M668.52,455.7c1.01,1.88,3.33,14.33-2.46,21.28-5.5,6.66-19.11,7.09-27.8,4.78-11.73-3.04-20.12-12.74-23.31-22.15-2.75-8.25-2.61-18.1-1.45-23.31h.58c8.4,0,15.2-6.8,15.2-15.2s-6.8-15.2-15.2-15.2-15.2,6.8-15.2,15.2c0,4.92,2.32,9.27,5.94,12.02-1.74,4.49-8.98,12.74-18.39,17.66-3.04,1.59-13.03,6.37-26.49,5.94-6.23-.29-13.61-.58-21.14-5.65-3.76-2.61-11-7.24-12.31-15.93-1.45-9.7,5.65-17.08,6.66-18.1-12.02-12.88-23.89-25.77-35.9-38.65-12.02,12.88-23.89,25.77-35.9,38.65,1.01,1.01,8.98,7.53,6.66,17.81-3.62,16.65-17.52,20.41-26.2,21.72-14.62,2.17-26.06-2.32-29.1-3.91-9.41-4.92-20.12-15.93-21.72-20.41,3.62-2.75,5.94-7.09,5.94-12.02,0-8.4-6.8-15.2-15.2-15.2s-15.2,6.8-15.2,15.2,6.8,15.2,15.2,15.2h.58c1.01,5.21,1.59,13.61-.58,22.01-1.01,3.76-2.03,9.41-6.37,14.19-6.8,7.24-12.45,9.12-20.27,10.42-4.92,.87-18.53,2.46-22.87-8.4-3.04-7.24-1.3-16.07-.43-17.95l-54.72-4.63,9.27,46.91c2.9,.29,7.38,1.74,13.32,5.21,.87,.58,1.88,1.3,2.9,2.46,.87,.87,1.59,1.74,2.46,2.75h0c3.62,4.2,6.8,9.12,6.8,9.12,7.96-9.7,37.21-31.85,116.69-40.54,20.56-2.17,44.3-3.62,71.52-3.62h9.7c2.75,0,5.36,0,7.96,.14,120.74,2.75,160.99,32.28,170.4,44.01,0,0,7.67-11.58,12.31-14.19,6.08-3.47,10.57-4.78,13.32-5.21l9.27-46.91-54.43,4.49h0Z"/></g><g id="cross"><polygon id="bottom-3" class="cls-1" points="441.22 532.86 414.73 625.08 419.65 630.73 487.69 630.73 516.79 529.39 441.22 532.86"/><path id="upper-2" class="cls-1" d="M611.91,354.07h-44.73l11.44-39.81-7.09-8.54h-65l-13.9,48.21h-51.97l-16.07,56.03,6.95,8.4h22.44c15.35-16.5,30.69-33.15,46.04-49.66l.43,.43c14.62,15.78,29.39,31.71,44.01,47.49-1.3,1.3-14.33,11.29-6.37,23.16,1.01,1.45,2.17,2.61,3.47,3.47l7.09-24.9h54.58l15.93-55.74-7.24-8.54h0Z"/></g></g></svg>