<?xml version="1.0" encoding="utf-8"?>
<!-- Generator: Adobe Illustrator 26.3.1, SVG Export Plug-In . SVG Version: 6.00 Build 0)  -->
<svg version="1.1" id="LOGO" xmlns="http://www.w3.org/2000/svg" xmlns:xlink="http://www.w3.org/1999/xlink" x="0px" y="0px"
	 viewBox="0 0 600 600" style="enable-background:new 0 0 600 600;" xml:space="preserve">
<style type="text/css">
	.st0{fill:#FFFFFF;}
</style>
<g id="hoop">
	<g id="right">
		<polygon id="element" class="st0" points="356.8,457.1 409.8,430.3 502.3,447.2 430.2,491.6 		"/>
		<polygon id="element_00000000184533658094825850000000678690792801508239_" class="st0" points="426.3,418.9 462.2,376 
			543.9,355.2 501.2,418.9 		"/>
		<polyline id="element_00000058556504166424757570000015122185760604382398_" class="st0" points="488.8,307 546.8,260.2 
			538.9,328.9 471.9,360.3 		"/>
		<polygon id="element_00000048466854697099151580000002468958871274517153_" class="st0" points="493.8,282.8 486.3,236.6 
			515.9,174.1 533.1,234.7 		"/>
		<polygon id="element_00000069358096626684999340000018289760679684845471_" class="st0" points="482.8,212.1 496.3,157.8 
			456.2,112.5 457.3,178.3 		"/>
		<polygon id="element_00000142892297917863377280000009887312266742187439_" class="st0" points="446,152.1 439,100.8 387.7,75.3 
			413.2,133.5 		"/>
	</g>
	<polygon id="bottom_00000134936047575514125810000013325668486285561487_" class="st0" points="335.2,458.6 300,458.6 264.8,458.6 
		181.5,520.5 274.9,524.7 300,492.1 325.1,524.7 418.5,520.5 	"/>
	<g id="left">
		<polygon id="element_00000084516897231239983530000014584015993509872806_" class="st0" points="243.2,457.1 190.2,430.3 
			97.7,447.2 169.8,491.6 		"/>
		<polygon id="element_00000106142451910462401340000002500877583193660094_" class="st0" points="173.7,418.9 137.8,376 
			56.1,355.2 98.8,418.9 		"/>
		<polyline id="element_00000152253182357513608480000000200935321545389470_" class="st0" points="111.2,307 53.2,260.2 
			61.1,328.9 128.1,360.3 		"/>
		<polygon id="element_00000098910329432685357830000012367546066515594885_" class="st0" points="106.2,282.8 113.7,236.6 
			84.1,174.1 66.9,234.7 		"/>
		<polygon id="element_00000143585315561005422030000012327317594023863945_" class="st0" points="117.2,212.1 103.7,157.8 
			143.8,112.5 142.7,178.3 		"/>
		<polygon id="element_00000007419875946411059200000006777821373315827354_" class="st0" points="154,152.1 161,100.8 212.3,75.3 
			186.8,133.5 		"/>
	</g>
</g>
<g id="crown">
	<path id="bottom_00000067227067219635450990000010452234695121090183_" class="st0" d="M302.1,308.2h-3.2
		c-74.1-0.3-104.1,17.8-114.4,27.1l7.1,11.4c8.9,15.2,52.2,23.3,108,23.4h0.9c55.8,0,99-8.2,108-23.4l7.1-11.4
		C405.2,326,375.5,308,302.1,308.2L302.1,308.2z M300.1,363.8H300c-58.2,0-105.7-9.9-104-21.4c1.5-9.7,43.4-25.5,104-25.1
		c60.7-0.4,102.6,15.4,104,25.1C405.8,353.9,358.3,363.8,300.1,363.8z"/>
	<path id="middle" class="st0" d="M427.3,314.5c-4.2-4.4-31.4-28.3-126.3-28.3c-0.4,0-0.8,0-1.1,0s-0.8,0-1.1,0
		c-94.8,0-122,23.9-126.3,28.3c-0.4,0.5-0.6,0.7-0.6,0.7l10.2,16.4c10.8-10.3,41.2-29.6,117.8-29.6s107,19.3,117.8,29.6l10.2-16.4
		C427.9,315.2,427.8,314.9,427.3,314.5L427.3,314.5z M190.7,320.1l-7.7-4.4l1.8-6.4l6.9,3L190.7,320.1z M239.4,303.7l-4.3-1.5
		l-1.1-6.4l3.6-2.6l4.3,1.5l1.1,6.4L239.4,303.7L239.4,303.7z M299.1,299.4l-4.9-6.3l4.9-4.9l4.9,4.9L299.1,299.4z M363,302.2
		l-4.3,1.5l-3.6-2.6l1.1-6.4l4.3-1.5l3.6,2.6L363,302.2L363,302.2z M407.4,320.1l-1.1-7.8l7-3l1.8,6.4L407.4,320.1L407.4,320.1z"/>
	<path id="upper" class="st0" d="M416.4,269.4c0.7,1.3,2.3,9.9-1.7,14.7c-3.8,4.6-13.2,4.9-19.2,3.3c-8.1-2.1-13.9-8.8-16.1-15.3
		c-1.9-5.7-1.8-12.5-1-16.1c0.1,0,0.2,0,0.4,0c5.8,0,10.5-4.7,10.5-10.5s-4.7-10.5-10.5-10.5s-10.5,4.7-10.5,10.5
		c0,3.4,1.6,6.4,4.1,8.3c-1.2,3.1-6.2,8.8-12.7,12.2c-2.1,1.1-9,4.4-18.3,4.1c-4.3-0.2-9.4-0.4-14.6-3.9c-2.6-1.8-7.6-5-8.5-11
		c-1-6.7,3.9-11.8,4.6-12.5c-8.3-8.9-16.5-17.8-24.8-26.7c-8.3,8.9-16.5,17.8-24.8,26.7c0.7,0.7,6.2,5.2,4.6,12.3
		c-2.5,11.5-12.1,14.1-18.1,15c-10.1,1.5-18-1.6-20.1-2.7c-6.5-3.4-13.9-11-15-14.1c2.5-1.9,4.1-4.9,4.1-8.3
		c0-5.8-4.7-10.5-10.5-10.5s-10.5,4.7-10.5,10.5s4.7,10.5,10.5,10.5c0.1,0,0.2,0,0.4,0c0.7,3.6,1.1,9.4-0.4,15.2
		c-0.7,2.6-1.4,6.5-4.4,9.8c-4.7,5-8.6,6.3-14,7.2c-3.4,0.6-12.8,1.7-15.8-5.8c-2.1-5-0.9-11.1-0.3-12.4l-37.8-3.2l6.4,32.4
		c2,0.2,5.1,1.2,9.2,3.6c0.6,0.4,1.3,0.9,2,1.7c0.6,0.6,1.1,1.2,1.7,1.9l0,0c2.5,2.9,4.7,6.3,4.7,6.3c5.5-6.7,25.7-22,80.6-28
		c14.2-1.5,30.6-2.5,49.4-2.5c1.9,0,3.9,0,5.7,0c0.4,0,0.7,0,1,0c1.9,0,3.7,0,5.5,0.1c83.4,1.9,111.2,22.3,117.7,30.4
		c0,0,5.3-8,8.5-9.8c4.2-2.4,7.3-3.3,9.2-3.6l6.4-32.4L416.4,269.4L416.4,269.4z"/>
</g>
<g id="cross">
	<polygon id="bottom" class="st0" points="259.4,322.7 241.1,386.4 244.5,390.3 291.5,390.3 311.6,320.3 	"/>
	<path id="upper_00000001643940642370307510000000016030741713516712_" class="st0" d="M377.3,199.2h-30.9l7.9-27.5l-4.9-5.9h-44.9
		l-9.6,33.3H259l-11.1,38.7l4.8,5.8h15.5c10.6-11.4,21.2-22.9,31.8-34.3l0.3,0.3c10.1,10.9,20.3,21.9,30.4,32.8
		c-0.9,0.9-9.9,7.8-4.4,16c0.7,1,1.5,1.8,2.4,2.4l4.9-17.2h37.7l11-38.5L377.3,199.2L377.3,199.2z"/>
</g>
</svg>
